<?xml version="1.0" encoding="UTF-8" standalone="no"?>
<svg width="131px" height="18px" viewBox="0 0 131 18" version="1.1" xmlns="http://www.w3.org/2000/svg" xmlns:xlink="http://www.w3.org/1999/xlink">
    <!-- Generator: Sketch 42 (36781) - http://www.bohemiancoding.com/sketch -->
    <title>Logo Dark</title>
    <desc>Created with Sketch.</desc>
    <defs></defs>
    <g id="Colors-+-Fonts" stroke="none" stroke-width="1" fill="none" fill-rule="evenodd">
        <g id="Logo" transform="translate(-343.000000, -157.000000)" fill="#191919">
            <g id="Logo-Dark" transform="translate(343.000000, 157.000000)">
                <g id="Logo-Scaleable">
                    <path d="M91.9100015,0 L96.4633808,0 C98.230133,0 99.7278345,0.26799732 100.95653,0.804 C102.185226,1.34000268 103.185032,2.03199576 103.955979,2.88 C104.726925,3.72800424 105.28505,4.6919946 105.630369,5.772 C105.975689,6.8520054 106.148346,7.92799464 106.148346,9 C106.148346,10.3120066 105.911445,11.4919948 105.437634,12.54 C104.963823,13.5880052 104.325393,14.4799963 103.522323,15.216 C102.719254,15.9520037 101.783693,16.515998 100.715611,16.908 C99.6475288,17.300002 98.5192335,17.496 97.3306912,17.496 L91.9100015,17.496 L91.9100015,0 Z M96.8729441,14.712 C97.7884429,14.712 98.6316529,14.5840013 99.4025992,14.328 C100.173546,14.0719987 100.840083,13.6920025 101.402231,13.188 C101.96438,12.6839975 102.402046,12.0680036 102.715243,11.34 C103.02844,10.6119964 103.185036,9.7680048 103.185036,8.808 C103.185036,7.71999456 102.996318,6.7960038 102.618875,6.036 C102.241433,5.2759962 101.763614,4.66000236 101.185404,4.188 C100.607194,3.71599764 99.9647484,3.37200108 99.2580475,3.156 C98.5513467,2.93999892 97.8767787,2.832 97.2343234,2.832 L94.8733119,2.832 L94.8733119,14.712 L96.8729441,14.712 Z" id="Combined-Shape"></path>
                    <path d="M26.3714544,17.688 C25.4238328,17.688 24.5364547,17.5320016 23.7092935,17.22 C22.8821323,16.9079984 22.1633962,16.4720028 21.5530636,15.912 C20.942731,15.3519972 20.4608968,14.676004 20.1075464,13.884 C19.7541959,13.091996 19.5775234,12.2160048 19.5775234,11.256 L19.5775234,0 L22.5167418,0 L22.5167418,11.184 C22.5167418,11.6960026 22.6171239,12.1759978 22.8178912,12.624 C23.0186585,13.0720022 23.2916979,13.4639983 23.6370176,13.8 C23.9823374,14.1360017 24.3878812,14.403999 24.8536613,14.604 C25.3194414,14.804001 25.8253674,14.904 26.3714544,14.904 C26.9175414,14.904 27.4274827,14.804001 27.9012935,14.604 C28.3751043,14.403999 28.7886787,14.1360017 29.1420291,13.8 C29.4953795,13.4639983 29.7724342,13.0720022 29.9732015,12.624 C30.1739688,12.1759978 30.274351,11.6960026 30.274351,11.184 L30.274351,0 L33.2135693,0 L33.2135693,11.256 C33.2135693,12.2160048 33.0368968,13.091996 32.6835464,13.884 C32.3301959,14.676004 31.8443464,15.3519972 31.2259831,15.912 C30.6076199,16.4720028 29.8808532,16.9079984 29.0456613,17.22 C28.2104694,17.5320016 27.319076,17.688 26.3714544,17.688 Z" id="Path"></path>
                    <polygon id="Path" points="71.874731 17.496 71.874731 0 83.5352368 0 83.5352368 2.664 74.8139494 2.664 74.8139494 7.368 82.5715586 7.368 82.5715586 10.104 74.8139494 10.104 74.8139494 14.76 83.8725241 14.76 83.8725241 17.496"></polygon>
                    <g id="x" transform="translate(41.251047, 0.000000)">
                        <path d="M19.5747126,13.9837179 L19.5747126,3.37539969 L13.1501916,8.712 L19.5747126,13.9837179 Z M21.0232193,2.1598667e-15 L22.513931,0 L22.513931,17.496 L21.0420491,17.496 L19.1651494,17.496 L11.2228352,11.088 C11.1585897,10.9759994 3.27249074,17.4159996 3.20824521,17.496 L1.5299952,17.496 L0,17.496 L0,4.25858307e-15 L1.50851033,2.07292835e-15 L3.37688889,0 C3.42507304,0.0800004 11.1826817,6.35999928 11.2469272,6.504 C11.2469272,6.504 18.9483216,0.0800004 18.9965057,0 L21.0232193,0 Z M2.93921839,3.41902568 L2.93921839,13.8037975 C5.61674126,11.5899584 9.24077589,8.58974137 9.27138697,8.544 C9.24040344,8.5054184 5.50144532,5.48633866 2.93921839,3.41902568 Z" id="Combined-Shape"></path>
                    </g>
                    <path d="M112.680077,8.976 C112.680077,7.75999392 112.916978,6.60800544 113.390789,5.52 C113.8646,4.43199456 114.507046,3.48000408 115.318146,2.664 C116.129245,1.84799592 117.076853,1.2000024 118.160996,0.72 C119.24514,0.2399976 120.405557,0 121.642284,0 C122.862949,0 124.019351,0.2399976 125.111525,0.72 C126.203699,1.2000024 127.159337,1.84799592 127.978467,2.664 C128.797598,3.48000408 129.444059,4.43199456 129.91787,5.52 C130.391681,6.60800544 130.628582,7.75999392 130.628582,8.976 C130.628582,10.2080062 130.391681,11.3639946 129.91787,12.444 C129.444059,13.5240054 128.797598,14.467996 127.978467,15.276 C127.159337,16.084004 126.203699,16.7199977 125.111525,17.184 C124.019351,17.6480023 122.862949,17.88 121.642284,17.88 C120.405557,17.88 119.24514,17.6480023 118.160996,17.184 C117.076853,16.7199977 116.129245,16.084004 115.318146,15.276 C114.507046,14.467996 113.8646,13.5240054 113.390789,12.444 C112.916978,11.3639946 112.680077,10.2080062 112.680077,8.976 Z M115.643387,8.976 C115.643387,9.82400424 115.799983,10.6199963 116.11318,11.364 C116.426377,12.1080037 116.860028,12.7559972 117.414146,13.308 C117.968263,13.8600028 118.610709,14.2959984 119.341502,14.616 C120.072295,14.9360016 120.863306,15.096 121.714559,15.096 C122.53369,15.096 123.30864,14.9360016 124.039433,14.616 C124.770226,14.2959984 125.404641,13.8600028 125.942697,13.308 C126.480754,12.7559972 126.906374,12.1080037 127.219571,11.364 C127.532768,10.6199963 127.689364,9.82400424 127.689364,8.976 C127.689364,8.12799576 127.528753,7.33200372 127.207525,6.588 C126.886297,5.84399628 126.452646,5.1920028 125.906559,4.632 C125.360472,4.0719972 124.722042,3.6320016 123.991249,3.312 C123.260456,2.9919984 122.477475,2.832 121.642284,2.832 C120.807092,2.832 120.024111,2.9919984 119.293318,3.312 C118.562525,3.6320016 117.92811,4.0719972 117.390054,4.632 C116.851997,5.1920028 116.426377,5.84399628 116.11318,6.588 C115.799983,7.33200372 115.643387,8.12799576 115.643387,8.976 Z" id="Combined-Shape"></path>
                    <polygon id="Path" points="11.540046 0 11.540046 2.808 7.20349425 2.808 7.20349425 17.496 4.24018391 17.496 4.24018391 2.808 0 2.808 0 0"></polygon>
                </g>
            </g>
        </g>
    </g>
</svg>