<?xml version="1.0" encoding="UTF-8" standalone="no"?>
<svg width="157px" height="22px" viewBox="0 0 157 22" version="1.1" xmlns="http://www.w3.org/2000/svg" xmlns:xlink="http://www.w3.org/1999/xlink">
    <!-- Generator: Sketch 42 (36781) - http://www.bohemiancoding.com/sketch -->
    <title>Logo Scaleable Copy</title>
    <desc>Created with Sketch.</desc>
    <defs></defs>
    <g id="Colors-+-Fonts" stroke="none" stroke-width="1" fill="none" fill-rule="evenodd">
        <g id="Logo" transform="translate(-77.000000, -170.000000)" fill="#F4F4F4">
            <g id="Logo-Scaleable-Copy" transform="translate(77.000000, 170.000000)">
                <path d="M110.151681,0 L115.608785,0 C117.72619,0 119.521145,0.32755228 120.993704,0.982666667 C122.466263,1.63778105 123.664504,2.48355037 124.588463,3.52 C125.512421,4.55644963 126.181319,5.73466007 126.595175,7.05466667 C127.009032,8.37467327 127.215957,9.68977123 127.215957,11 C127.215957,12.6035636 126.932037,14.0457714 126.364187,15.3266667 C125.796337,16.607562 125.031196,17.6977733 124.068739,18.5973333 C123.106282,19.4968934 121.985036,20.1862198 120.704969,20.6653333 C119.424901,21.1444468 118.072669,21.384 116.648233,21.384 L110.151681,21.384 L110.151681,0 Z M116.099635,17.9813333 C117.196836,17.9813333 118.207401,17.8248905 119.131359,17.512 C120.055318,17.1991095 120.854145,16.7346697 121.527865,16.1186667 C122.201585,15.5026636 122.726116,14.7497822 123.101474,13.86 C123.476833,12.9702178 123.664509,11.9386725 123.664509,10.7653333 C123.664509,9.43554891 123.438335,8.30622687 122.98598,7.37733333 C122.533625,6.4484398 121.960972,5.69555844 121.268003,5.11866667 C120.575034,4.54177489 119.80508,4.12133465 118.958118,3.85733333 C118.111156,3.59333201 117.302704,3.46133333 116.532739,3.46133333 L113.70313,3.46133333 L113.70313,17.9813333 L116.099635,17.9813333 Z" id="Combined-Shape"></path>
                <path d="M31.6054835,21.6186667 C30.4697844,21.6186667 29.4062854,21.4280019 28.4149548,21.0466667 C27.4236242,20.6653314 26.5622381,20.1324479 25.8307709,19.448 C25.0993036,18.7635521 24.5218381,17.9373382 24.0983571,16.9693333 C23.674876,16.0013285 23.4631387,14.9306725 23.4631387,13.7573333 L23.4631387,0 L26.9857134,0 L26.9857134,13.6693333 C26.9857134,14.2951142 27.1060187,14.881775 27.346633,15.4293333 C27.5872472,15.9768916 27.9144776,16.4559979 28.3283341,16.8666667 C28.7421906,17.2773354 29.228224,17.6048877 29.786449,17.8493333 C30.3446741,18.093779 30.9510128,18.216 31.6054835,18.216 C32.2599542,18.216 32.8711052,18.093779 33.4389548,17.8493333 C34.0068044,17.6048877 34.5024623,17.2773354 34.9259433,16.8666667 C35.3494243,16.4559979 35.681467,15.9768916 35.9220812,15.4293333 C36.1626955,14.881775 36.2830008,14.2951142 36.2830008,13.6693333 L36.2830008,0 L39.8055755,0 L39.8055755,13.7573333 C39.8055755,14.9306725 39.5938381,16.0013285 39.1703571,16.9693333 C38.746876,17.9373382 38.1645983,18.7635521 37.4235065,19.448 C36.6824147,20.1324479 35.8114042,20.6653314 34.810449,21.0466667 C33.8094938,21.4280019 32.7411827,21.6186667 31.6054835,21.6186667 Z" id="Path"></path>
                <polygon id="Path" points="86.1399448 21.384 86.1399448 0 100.114749 0 100.114749 3.256 89.6625195 3.256 89.6625195 9.00533333 98.9598069 9.00533333 98.9598069 12.3493333 89.6625195 12.3493333 89.6625195 18.04 100.518979 18.04 100.518979 21.384"></polygon>
                <g id="x" transform="translate(49.438277, 0.000000)">
                    <path d="M23.4597701,17.0912108 L23.4597701,4.12548851 L15.7601533,10.648 L23.4597701,17.0912108 Z M25.1957666,2.63983707e-15 L26.9823448,0 L26.9823448,21.384 L25.2183337,21.384 L22.9689195,21.384 L13.4502682,13.552 C13.3732716,13.4151104 3.92199272,21.2862217 3.84499617,21.384 L1.83365837,21.384 L0,21.384 L0,5.20493487e-15 L1.80790932,2.5335791e-15 L4.04711111,0 C4.10485853,0.0977782667 13.4021452,7.77333245 13.4791418,7.94933333 C13.4791418,7.94933333 22.7090572,0.0977782667 22.7668046,0 L25.1957666,0 Z M3.52257471,4.17880917 L3.52257471,16.871308 C6.73151434,14.1655047 11.074823,10.4985728 11.1115096,10.4426667 C11.0743766,10.3955114 6.59333523,6.70552503 3.52257471,4.17880917 Z" id="Combined-Shape"></path>
                </g>
                <path d="M135.044061,10.9706667 C135.044061,9.48443701 135.327982,8.07645109 135.895831,6.74666667 C136.463681,5.41688224 137.233635,4.25333832 138.205716,3.256 C139.177798,2.25866168 140.31348,1.4666696 141.612797,0.88 C142.912114,0.2933304 144.302843,0 145.785027,0 C147.247961,0 148.633879,0.2933304 149.94282,0.88 C151.251761,1.4666696 152.397068,2.25866168 153.378774,3.256 C154.36048,4.25333832 155.135246,5.41688224 155.703096,6.74666667 C156.270945,8.07645109 156.554866,9.48443701 156.554866,10.9706667 C156.554866,12.476452 156.270945,13.8893267 155.703096,15.2093333 C155.135246,16.5293399 154.36048,17.6831062 153.378774,18.6706667 C152.397068,19.6582272 151.251761,20.4355527 149.94282,21.0026667 C148.633879,21.5697806 147.247961,21.8533333 145.785027,21.8533333 C144.302843,21.8533333 142.912114,21.5697806 141.612797,21.0026667 C140.31348,20.4355527 139.177798,19.6582272 138.205716,18.6706667 C137.233635,17.6831062 136.463681,16.5293399 135.895831,15.2093333 C135.327982,13.8893267 135.044061,12.476452 135.044061,10.9706667 Z M138.59551,10.9706667 C138.59551,12.0071163 138.783186,12.9799955 139.158544,13.8893333 C139.533902,14.7986712 140.053621,15.5906633 140.717716,16.2653333 C141.381812,16.9400034 142.151766,17.4728869 143.027602,17.864 C143.903437,18.2551131 144.851443,18.4506667 145.871648,18.4506667 C146.853354,18.4506667 147.782111,18.2551131 148.657946,17.864 C149.533782,17.4728869 150.294112,16.9400034 150.938958,16.2653333 C151.583804,15.5906633 152.093899,14.7986712 152.469257,13.8893333 C152.844615,12.9799955 153.032291,12.0071163 153.032291,10.9706667 C153.032291,9.93421704 152.839803,8.96133788 152.45482,8.052 C152.069837,7.14266212 151.550118,6.3457812 150.895648,5.66133333 C150.241177,4.97688547 149.476035,4.43911307 148.600199,4.048 C147.724363,3.65688693 146.785982,3.46133333 145.785027,3.46133333 C144.784072,3.46133333 143.84569,3.65688693 142.969854,4.048 C142.094019,4.43911307 141.333689,4.97688547 140.688843,5.66133333 C140.043997,6.3457812 139.533902,7.14266212 139.158544,8.052 C138.783186,8.96133788 138.59551,9.93421704 138.59551,10.9706667 Z" id="Combined-Shape"></path>
                <polygon id="Path" points="13.8304368 0 13.8304368 3.432 8.6331954 3.432 8.6331954 21.384 5.08174713 21.384 5.08174713 3.432 0 3.432 0 0"></polygon>
            </g>
        </g>
    </g>
</svg>