<?xml version="1.0" encoding="UTF-8" standalone="no"?>
<svg width="455px" height="64px" viewBox="0 0 455 64" version="1.1" xmlns="http://www.w3.org/2000/svg" xmlns:xlink="http://www.w3.org/1999/xlink">
    <!-- Generator: Sketch 42 (36781) - http://www.bohemiancoding.com/sketch -->
    <title>Logo Thin Dark</title>
    <desc>Created with Sketch.</desc>
    <defs></defs>
    <g id="Documentation-Landing" stroke="none" stroke-width="1" fill="none" fill-rule="evenodd">
        <g id="Landing-Desktop-HD" transform="translate(-492.000000, -478.000000)" fill="#F4F4F4">
            <g id="Logo-Thin-Light" transform="translate(492.000000, 477.000000)">
                <g id="Thinner-Logo-Light">
                    <g id="X-Copy" transform="translate(142.332598, 0.000000)">
                        <path d="M34.2217323,31.0411111 C32.9606236,29.0766568 3.85496694,3.19223204 2.59385827,1.22777778 L6.89307087,1.22777778 C6.89307087,1.22777778 36.6866136,28.4122208 36.8012598,28.7011111 C36.9159061,28.4122208 65.1617263,3.07667591 66.3655118,1.22777778 L70.4067717,1.22777778 L38.8648819,31.2144444 L71.1905617,62.0998345 L71.1905617,62.5011111 L67.2253543,62.5011111 C67.2253543,62.5011111 36.8585855,34.4788926 36.2853543,33.7277778 C36.1707081,34.0166681 5.86125984,62.5011111 5.86125984,62.5011111 L1.73401575,62.5011111 C3.05244754,60.4211007 32.9033005,33.1211215 34.2217323,31.0411111 Z" id="Path"></path>
                        <polygon id="Path-Copy-6" points="1.73401575 62.5011111 1.73401575 1.22777778 4.95842511 1.22777778 4.95842511 62.5011111"></polygon>
                        <polygon id="Path-Copy-5" points="68.0135433 62.5011111 68.0135433 1.22777778 71.2379527 1.22777778 71.2379527 62.5011111"></polygon>
                    </g>
                    <path d="M90.4984252,63.7722222 C87.574946,63.7722222 84.8521386,63.3100046 82.3299213,62.3855556 C79.8077039,61.4611065 77.629458,60.1033423 75.7951181,58.3122222 C73.9607782,56.5211022 72.5133911,54.3111243 71.4529134,51.6822222 C70.3924356,49.0533202 69.8622047,46.0633501 69.8622047,42.7122222 L69.8622047,1.80555556 L73.4735433,1.80555556 L73.4735433,42.4522222 C73.4735433,45.2255694 73.9034603,47.7244333 74.7633071,49.9488889 C75.6231539,52.1733445 76.7982603,54.0655478 78.2886614,55.6255556 C79.7790626,57.1855634 81.5703832,58.369996 83.6626772,59.1788889 C85.7549711,59.9877818 88.033531,60.3922222 90.4984252,60.3922222 C92.9059963,60.3922222 95.1558951,59.9877818 97.248189,59.1788889 C99.3404829,58.369996 101.146134,57.1855634 102.665197,55.6255556 C104.18426,54.0655478 105.373696,52.1733445 106.233543,49.9488889 C107.09339,47.7244333 107.523307,45.2255694 107.523307,42.4522222 L107.523307,1.80555556 L111.134646,1.80555556 L111.134646,42.7122222 C111.134646,46.0633501 110.604415,49.0533202 109.543937,51.6822222 C108.483459,54.3111243 107.021742,56.5211022 105.15874,58.3122222 C103.295739,60.1033423 101.117493,61.4611065 98.623937,62.3855556 C96.1303812,63.3100046 93.4219044,63.7722222 90.4984252,63.7722222 Z" id="TUXEDO-Copy-3"></path>
                    <polygon id="Path-Copy-8" points="37.0592126 1.80555556 37.0592126 5.27222222 20.2062992 5.27222222 20.2062992 63.0788889 16.6809449 63.0788889 16.6809449 5.27222222 0 5.27222222 0 1.80555556"></polygon>
                    <polygon id="Path-Copy-7" points="245.413386 63.0788889 245.413386 1.80555556 282.644567 1.80555556 282.644567 5.09888889 249.024724 5.09888889 249.024724 30.5788889 279.205197 30.5788889 279.205197 33.8722222 249.024724 33.8722222 249.024724 59.6988889 283.848346 59.6988889 283.848346 63.0788889"></polygon>
                    <path d="M392.30315,33.1788889 C392.30315,28.8455339 393.119992,24.7866856 394.753701,21.0022222 C396.38741,17.2177589 398.594317,13.8955699 401.374488,11.0355556 C404.15466,8.17554126 407.422028,5.92223046 411.176693,4.27555556 C414.931357,2.62888066 418.958246,1.80555556 423.25748,1.80555556 C427.556714,1.80555556 431.597934,2.62888066 435.38126,4.27555556 C439.164586,5.92223046 442.474946,8.17554126 445.312441,11.0355556 C448.149935,13.8955699 450.385504,17.2177589 452.019213,21.0022222 C453.652922,24.7866856 454.469764,28.8455339 454.469764,33.1788889 C454.469764,37.5122439 453.652922,41.5710922 452.019213,45.3555556 C450.385504,49.1400189 448.149935,52.4477636 445.312441,55.2788889 C442.474946,58.1100142 439.164586,60.3488807 435.38126,61.9955556 C431.597934,63.6422305 427.556714,64.4655556 423.25748,64.4655556 C418.958246,64.4655556 414.931357,63.6422305 411.176693,61.9955556 C407.422028,60.3488807 404.15466,58.1100142 401.374488,55.2788889 C398.594317,52.4477636 396.38741,49.1400189 394.753701,45.3555556 C393.119992,41.5710922 392.30315,37.5122439 392.30315,33.1788889 Z M395.828504,33.2655556 C395.828504,37.078908 396.545032,40.6755387 397.97811,44.0555556 C399.411188,47.4355725 401.374476,50.3822097 403.868031,52.8955556 C406.361587,55.4089015 409.256361,57.4022149 412.552441,58.8755556 C415.84852,60.3488963 419.38817,61.0855556 423.171496,61.0855556 C426.954822,61.0855556 430.537463,60.3488963 433.919528,58.8755556 C437.301592,57.4022149 440.253688,55.4089015 442.775906,52.8955556 C445.298123,50.3822097 447.290071,47.4355725 448.751811,44.0555556 C450.213551,40.6755387 450.944409,37.0500194 450.944409,33.1788889 C450.944409,29.3655365 450.213551,25.7544615 448.751811,22.3455556 C447.290071,18.9366496 445.312453,15.9755681 442.818898,13.4622222 C440.325342,10.9488763 437.401907,8.95556292 434.048504,7.48222222 C430.695101,6.00888152 427.126791,5.27222222 423.343465,5.27222222 C419.560139,5.27222222 415.991828,6.00888152 412.638425,7.48222222 C409.285023,8.95556292 406.361587,10.9633206 403.868031,13.5055556 C401.374476,16.0477905 399.411188,19.008872 397.97811,22.3888889 C396.545032,25.7689058 395.828504,29.3944251 395.828504,33.2655556 Z" id="Combined-Shape-Copy-4"></path>
                    <path d="M315.275591,1.80555556 L328.517165,1.80555556 C334.650739,1.80555556 339.838404,2.74443506 344.080315,4.62222222 C348.322226,6.50000939 351.775892,8.92665179 354.441417,11.9022222 C357.106942,14.8777927 359.041569,18.1999817 360.245354,21.8688889 C361.44914,25.5377961 362.051024,29.1344268 362.051024,32.6588889 C362.051024,37.3389123 361.234181,41.5422036 359.600472,45.2688889 C357.966763,48.9955742 355.759856,52.1877645 352.979685,54.8455556 C350.199514,57.5033466 346.946475,59.5399929 343.220472,60.9555556 C339.49447,62.3711182 335.567895,63.0788889 331.44063,63.0788889 L315.275591,63.0788889 L315.275591,1.80555556 Z M331.44063,59.6122222 C335.166633,59.6122222 338.677621,58.9911173 341.973701,57.7488889 C345.26978,56.5066605 348.135893,54.7155673 350.572126,52.3755556 C353.008359,50.0355439 354.942985,47.1900168 356.376063,43.8388889 C357.809141,40.487761 358.525669,36.7033544 358.525669,32.4855556 C358.525669,29.0766496 357.938116,25.7400163 356.762992,22.4755556 C355.587868,19.2110948 353.810878,16.3077905 351.431969,13.7655556 C349.053059,11.2233206 346.057971,9.18667432 342.446614,7.65555556 C338.835258,6.12443679 334.622071,5.35888889 329.806929,5.35888889 L318.800945,5.35888889 L318.800945,59.6122222 L331.44063,59.6122222 Z" id="Combined-Shape-Copy-3"></path>
                </g>
            </g>
        </g>
    </g>
</svg>